{
	"asset":{
		"generator":"Khronos glTF Blender I/O v4.2.70",
		"version":"2.0"
	},
	"scene":0,
	"scenes":[
		{
			"name":"Scene",
			"nodes":[
				0
			]
		}
	],
	"nodes":[
		{
			"mesh":0,
			"name":"happy_vrip",
			"translation":[
				0.019997114315629005,
				0.02632242627441883,
				0.12642723321914673
			]
		}
	],
	"meshes":[
		{
			"name":"happy_vrip",
			"primitives":[
				{
					"attributes":{
						"POSITION":0,
						"NORMAL":1,
						"COLOR_0":2
					},
					"indices":3
				}
			]
		}
	],
	"accessors":[
		{
			"bufferView":0,
			"componentType":5126,
			"count":543652,
			"max":[
				0.03522169962525368,
				0.034018900245428085,
				-0.04975710064172745
			],
			"min":[
				-0.046100299805402756,
				-0.047398898750543594,
				-0.2477799952030182
			],
			"type":"VEC3"
		},
		{
			"bufferView":1,
			"componentType":5126,
			"count":543652,
			"type":"VEC3"
		},
		{
			"bufferView":2,
			"componentType":5123,
			"count":543652,
			"normalized":true,
			"type":"VEC4"
		},
		{
			"bufferView":3,
			"componentType":5125,
			"count":3263148,
			"type":"SCALAR"
		}
	],
	"bufferViews":[
		{
			"buffer":0,
			"byteLength":6523824,
			"byteOffset":0,
			"target":34962
		},
		{
			"buffer":0,
			"byteLength":6523824,
			"byteOffset":6523824,
			"target":34962
		},
		{
			"buffer":0,
			"byteLength":4349216,
			"byteOffset":13047648,
			"target":34962
		},
		{
			"buffer":0,
			"byteLength":13052592,
			"byteOffset":17396864,
			"target":34963
		}
	],
	"buffers":[
		{
			"byteLength":30449456,
			"uri":"buddha.bin"
		}
	]
}
